# xmcd
#
# Track frame offsets: 
#        150
#        17383
#        37428
#        54483
#        70823
#        85323
#        103108
#        114715
#        138613
#        154100
#        165450
#        183203
#
# Disc length: 2961 seconds
#
# Revision: 0
# Processed by: cddbd v1.5.2PL0 Copyright (c) Steve Scherf et al.
# Submitted via: ExactAudioCopy v1.3
#
DISCID=a00b8f0c
DTITLE=Paul Lamb and The King Snakes - Shifting Into Gear
DYEAR=1992
DGENRE=Harmonica Blues, Electric Blues
TTITLE0=Come On Everybody
TTITLE1=Hey Woman
TTITLE2=Evening Sun
TTITLE3=Didn't Do Me No Good
TTITLE4=Give Up Giving Up
TTITLE5=Feel So Good
TTITLE6=Shifting Into Gear (Inst.)
TTITLE7=Must Be More To Life Than This
TTITLE8=One More Time
TTITLE9=Snakeskin Jump (Inst.)
TTITLE10=Need Somebody To Love
TTITLE11=Once Too Often
EXTD=
EXTT0=
EXTT1=
EXTT2=
EXTT3=
EXTT4=
EXTT5=
EXTT6=
EXTT7=
EXTT8=
EXTT9=
EXTT10=
EXTT11=
PLAYORDER=
